<?xml version="1.0" standalone="no"?>
<!DOCTYPE svg PUBLIC "-//W3C//DTD SVG 20010904//EN"
 "http://www.w3.org/TR/2001/REC-SVG-20010904/DTD/svg10.dtd">
<svg version="1.0" xmlns="http://www.w3.org/2000/svg"
 width="184.000000pt" height="174.000000pt" viewBox="0 0 184.000000 174.000000"
 preserveAspectRatio="xMidYMid meet">
<metadata>
Created by potrace 1.10, written by Peter Selinger 2001-2011
</metadata>
<g transform="translate(0.000000,174.000000) scale(0.100000,-0.100000)"
fill="#000000" stroke="none">
<path d="M790 1589 c-66 -15 -176 -55 -190 -69 -3 -3 -32 -25 -65 -50 -78 -58
-117 -99 -176 -188 -68 -102 -99 -206 -106 -353 -7 -146 11 -233 73 -355 25
-49 49 -91 53 -94 5 -3 15 -19 24 -36 21 -40 138 -159 177 -179 16 -9 30 -19
30 -24 0 -4 12 -13 27 -20 22 -10 30 -9 52 6 14 10 38 25 54 32 15 8 27 18 27
23 0 4 5 8 10 8 11 0 87 47 108 67 7 7 17 13 22 13 5 0 49 26 97 59 48 32 124
82 168 110 44 28 87 56 95 61 8 6 53 35 100 65 47 30 90 59 97 65 7 5 17 10
23 10 5 0 10 5 10 10 0 6 6 10 13 10 6 0 32 14 57 30 92 61 90 59 90 110 0 70
-28 194 -60 266 -81 180 -261 354 -402 389 -16 4 -28 11 -28 16 0 5 -3 8 -7 7
-5 -1 -42 3 -83 9 -128 21 -209 21 -290 2z m240 -19 c0 -5 5 -10 11 -10 5 0 8
4 5 8 -5 9 104 -10 139 -24 11 -4 24 -13 28 -21 4 -7 17 -13 28 -13 38 0 184
-113 175 -136 -3 -7 0 -11 8 -8 6 2 25 -10 41 -28 40 -44 97 -130 82 -123 -7
4 -4 0 5 -7 22 -18 63 -128 72 -193 15 -102 14 -109 -8 -127 l-21 -17 24 6
c16 4 22 2 20 -6 -3 -7 -8 -11 -11 -9 -4 2 -14 -6 -23 -17 -14 -17 -16 -18
-11 -2 3 11 2 16 -4 12 -6 -3 -10 -13 -10 -20 0 -18 -37 -38 -52 -29 -6 4 -8
3 -5 -3 4 -6 -16 -26 -44 -44 -42 -27 -53 -30 -61 -18 -8 11 -9 10 -4 -4 5
-15 2 -17 -17 -12 -17 5 -19 4 -7 -4 13 -10 13 -12 0 -21 -8 -5 -21 -10 -29
-10 -11 0 -11 3 0 18 13 15 12 16 -3 4 -9 -8 -14 -20 -11 -28 6 -16 -22 -20
-32 -4 -3 5 -12 7 -20 4 -8 -4 -12 -11 -9 -16 4 -6 9 -6 14 2 5 8 9 7 13 -4 6
-14 1 -18 -19 -15 -3 0 -14 -10 -25 -22 -29 -34 -30 -20 -3 36 26 55 30 75 13
75 -6 0 -8 9 -4 21 7 20 6 20 -15 2 -12 -10 -33 -29 -45 -42 -13 -13 -36 -25
-51 -27 -16 -1 -30 -7 -32 -12 -3 -10 -78 1 -90 13 -4 4 -1 10 6 12 9 4 10 9
3 17 -13 16 9 68 25 62 6 -3 9 5 7 17 -3 16 4 27 27 40 33 18 50 15 50 -8 0
-8 5 -17 10 -20 7 -4 9 6 7 30 -5 44 -10 49 -36 40 -59 -18 -121 -105 -121
-167 0 -52 11 -61 78 -62 67 -1 123 23 143 61 14 25 29 31 29 10 0 -7 -12 -36
-26 -65 -25 -51 -27 -52 -62 -47 -93 13 -236 25 -284 24 -47 0 -50 -1 -28 -11
14 -6 33 -10 43 -9 9 1 50 -2 90 -8 39 -6 102 -12 138 -13 41 -2 65 -6 63 -13
-3 -6 -37 -27 -76 -48 -40 -20 -68 -37 -62 -37 5 0 -11 -14 -36 -30 -25 -17
-51 -28 -58 -25 -7 3 -11 1 -7 -4 7 -12 -101 -74 -115 -66 -5 3 -7 0 -4 -9 4
-10 -5 -20 -28 -29 -18 -8 -48 -27 -67 -41 -27 -20 -37 -23 -48 -14 -10 8 -17
8 -26 -1 -9 -10 -8 -11 6 -6 11 5 17 2 17 -8 0 -19 -30 -30 -54 -21 -14 5 -15
9 -4 15 9 6 4 9 -16 9 -21 0 -27 4 -22 16 3 9 2 12 -5 9 -10 -7 -79 34 -79 47
0 4 -13 20 -29 35 -54 51 -120 147 -108 155 8 5 7 8 -3 8 -19 0 -74 116 -96
201 -22 89 -13 296 16 369 5 14 14 38 20 54 9 25 12 27 28 15 15 -12 15 -12
-1 7 -15 18 -15 23 -4 32 8 7 17 9 21 5 4 -4 4 0 1 8 -10 27 143 217 165 204
3 -2 21 12 40 32 32 33 72 55 94 52 5 0 12 4 15 10 4 5 38 19 76 30 76 21 275
30 275 11z"/>
<path d="M928 1563 c7 -3 16 -2 19 1 4 3 -2 6 -13 5 -11 0 -14 -3 -6 -6z"/>
<path d="M1068 1553 c6 -2 18 -2 25 0 6 3 1 5 -13 5 -14 0 -19 -2 -12 -5z"/>
<path d="M758 1543 c7 -3 16 -2 19 1 4 3 -2 6 -13 5 -11 0 -14 -3 -6 -6z"/>
<path d="M1138 1543 c7 -3 16 -2 19 1 4 3 -2 6 -13 5 -11 0 -14 -3 -6 -6z"/>
<path d="M858 1513 c7 -3 16 -2 19 1 4 3 -2 6 -13 5 -11 0 -14 -3 -6 -6z"/>
<path d="M645 1500 c-3 -5 -1 -10 4 -10 6 0 11 5 11 10 0 6 -2 10 -4 10 -3 0
-8 -4 -11 -10z"/>
<path d="M668 1473 c7 -3 16 -2 19 1 4 3 -2 6 -13 5 -11 0 -14 -3 -6 -6z"/>
<path d="M622 1463 c-12 -2 -20 -8 -18 -12 3 -4 -10 -13 -29 -19 -38 -14 -65
-67 -60 -119 2 -21 -1 -31 -7 -27 -6 4 -9 3 -7 -2 2 -5 10 -25 18 -45 16 -41
80 -89 119 -89 13 0 21 -4 18 -9 -3 -4 6 -6 21 -3 16 3 24 1 20 -5 -4 -6 5
-13 21 -16 15 -3 29 -2 32 3 3 4 27 -6 53 -24 46 -30 47 -31 25 -40 -23 -8
-48 -47 -48 -73 0 -7 -8 -13 -17 -13 -15 0 -16 -2 -3 -10 11 -7 7 -10 -17 -10
-18 0 -33 5 -33 11 0 5 -5 7 -11 4 -30 -19 -180 79 -163 107 4 6 1 13 -5 17
-9 6 -9 15 -1 35 5 15 8 31 5 36 -3 5 1 11 7 13 8 3 6 6 -4 6 -10 1 -18 6 -18
11 0 20 -37 9 -50 -15 -7 -14 -17 -25 -22 -25 -5 0 -5 -12 -2 -26 4 -17 3 -25
-3 -21 -7 4 -9 -6 -6 -26 2 -17 5 -44 6 -59 1 -16 4 -28 7 -28 3 0 11 -14 18
-30 8 -17 17 -28 22 -25 5 3 13 -7 18 -22 6 -16 11 -22 11 -16 1 10 7 10 26 1
13 -6 22 -15 18 -20 -3 -6 5 -5 17 2 15 8 20 8 16 1 -4 -6 0 -12 11 -12 10 -1
32 -3 48 -4 17 -2 53 -4 80 -5 44 -2 47 -3 20 -10 l-30 -8 30 -2 c26 -1 27 -3
10 -10 -15 -7 -16 -9 -4 -9 9 -1 19 -10 22 -20 6 -24 63 -61 93 -61 12 0 24
-6 27 -13 7 -19 -8 -41 -22 -33 -6 4 -11 0 -11 -8 0 -9 -4 -16 -10 -16 -5 0
-10 -4 -10 -9 0 -13 47 -1 64 18 10 11 18 56 25 141 11 147 12 149 34 183 23
35 22 37 -11 37 -25 0 -30 -5 -41 -42 -17 -57 -37 -87 -66 -98 -22 -8 -23 -12
-13 -42 6 -18 26 -48 44 -65 19 -18 34 -36 34 -39 0 -9 -63 7 -86 22 -23 16
-44 55 -44 83 0 16 -12 19 -82 24 -157 10 -248 78 -248 183 0 47 19 102 38
109 22 8 28 -3 14 -25 -30 -48 0 -122 67 -167 67 -46 211 -71 211 -38 0 30 34
85 61 98 26 12 27 15 14 34 -23 33 -80 59 -170 79 -38 8 -111 39 -126 52 -40
38 -49 103 -22 155 19 38 39 54 73 60 38 7 225 -16 242 -30 8 -7 20 -32 27
-55 7 -24 18 -49 23 -55 8 -10 5 -13 -10 -13 -11 0 -23 8 -27 18 -9 26 -89 82
-141 98 -71 21 -120 18 -138 -8 -21 -30 -20 -71 2 -96 16 -19 100 -52 172 -67
41 -9 122 -48 137 -67 6 -7 14 -29 18 -48 l6 -35 62 -1 c34 0 105 -4 157 -9
l95 -8 16 -46 c9 -25 19 -54 23 -63 15 -33 -13 -19 -61 31 -45 45 -52 49 -112
55 -35 4 -64 6 -66 4 -1 -2 -5 -39 -9 -82 l-6 -80 29 28 c41 39 112 48 133 17
11 -16 13 -32 8 -57 -4 -19 -4 -37 1 -40 5 -3 12 9 16 27 5 26 8 29 17 17 10
-14 13 -14 26 0 13 14 12 15 -2 10 -10 -4 -20 2 -28 17 -16 30 -5 51 16 30 21
-20 43 -19 50 3 3 9 10 25 15 34 7 13 5 16 -6 12 -10 -4 -16 0 -17 12 -2 36
-18 84 -27 85 -3 0 -15 3 -26 5 -11 3 -45 7 -75 10 -30 2 -66 6 -80 8 -14 1
-31 4 -38 4 -7 1 -10 7 -7 12 9 14 -8 12 -41 -4 -28 -15 -57 -10 -33 5 11 7
10 9 -4 9 -10 0 -15 5 -12 10 3 6 2 10 -3 10 -18 0 -21 40 -4 50 10 5 12 10 5
10 -6 0 -15 -5 -18 -10 -4 -6 -11 -8 -16 -4 -5 3 -6 10 -3 16 4 6 2 8 -4 4
-10 -6 -61 11 -72 25 -7 8 -62 23 -77 20 -6 -1 -14 3 -18 8 -3 6 -12 8 -19 5
-21 -8 -92 34 -104 61 -12 26 -6 59 8 50 5 -3 11 -1 15 5 9 14 37 12 73 -6 18
-8 37 -12 44 -8 7 5 9 2 6 -7 -3 -8 2 -21 10 -29 14 -13 15 -12 9 3 -8 20 1
21 26 3 9 -7 17 -22 17 -32 0 -15 2 -16 9 -5 7 10 10 10 16 1 4 -7 1 -17 -6
-22 -11 -8 -10 -9 3 -4 10 3 24 -1 31 -9 12 -11 18 -11 39 3 21 14 24 21 17
41 -5 13 -7 26 -5 29 3 2 0 9 -5 16 -6 6 -18 27 -28 46 -17 32 -22 35 -70 38
-28 2 -51 7 -51 12 0 5 -24 7 -52 4 -38 -3 -47 -2 -33 5 18 9 18 10 2 10 -10
1 -28 -4 -40 -11 -20 -10 -21 -10 -8 5 7 10 12 16 10 16 -2 -1 -14 -4 -27 -6z
m521 -464 c9 0 17 -5 17 -10 0 -6 5 -7 12 -3 8 5 9 2 5 -10 -5 -13 -3 -17 7
-13 16 6 36 -11 36 -30 0 -20 -14 -15 -45 16 l-29 29 -28 -21 c-15 -11 -31
-18 -34 -14 -4 4 -12 0 -19 -9 -9 -13 -10 -9 -7 20 2 20 9 36 16 36 6 0 4 5
-4 11 -11 7 -6 8 20 4 19 -4 43 -6 53 -6z m-219 -86 c-2 -21 -9 -42 -14 -47
-5 -5 -4 -16 3 -27 9 -14 9 -21 -1 -31 -9 -9 -12 -8 -12 6 0 9 -4 14 -10 11
-5 -3 -10 1 -10 9 0 9 -4 16 -10 16 -20 0 -9 27 20 53 17 15 30 32 30 37 0 6
2 10 5 10 2 0 2 -17 -1 -37z"/>
<path d="M1210 1461 c0 -5 9 -11 21 -14 16 -4 18 -3 8 9 -13 16 -29 19 -29 5z"/>
<path d="M1317 1446 c20 -26 27 -28 17 -3 -3 8 -12 18 -20 21 -11 4 -10 0 3
-18z"/>
<path d="M813 1443 c9 -2 25 -2 35 0 9 3 1 5 -18 5 -19 0 -27 -2 -17 -5z"/>
<path d="M1287 1439 c7 -7 15 -10 18 -7 3 3 -2 9 -12 12 -14 6 -15 5 -6 -5z"/>
<path d="M1362 1406 c7 -8 15 -12 17 -11 5 6 -10 25 -20 25 -5 0 -4 -6 3 -14z"/>
<path d="M490 1380 c-9 -6 -10 -10 -3 -10 6 0 15 5 18 10 8 12 4 12 -15 0z"/>
<path d="M940 1380 c0 -5 5 -10 11 -10 5 0 7 5 4 10 -3 6 -8 10 -11 10 -2 0
-4 -4 -4 -10z"/>
<path d="M1425 1340 c3 -5 8 -10 11 -10 2 0 4 5 4 10 0 6 -5 10 -11 10 -5 0
-7 -4 -4 -10z"/>
<path d="M1436 1304 c-5 -14 -4 -15 9 -4 17 14 19 20 6 20 -5 0 -12 -7 -15
-16z"/>
<path d="M465 1279 c-4 -6 -5 -12 -2 -15 2 -3 7 2 10 11 7 17 1 20 -8 4z"/>
<path d="M1447 1276 c-3 -8 -2 -18 4 -22 16 -9 22 2 11 21 -8 15 -10 16 -15 1z"/>
<path d="M1491 1214 c0 -11 3 -14 6 -6 3 7 2 16 -1 19 -3 4 -6 -2 -5 -13z"/>
<path d="M668 1213 c7 -3 16 -2 19 1 4 3 -2 6 -13 5 -11 0 -14 -3 -6 -6z"/>
<path d="M868 1123 c7 -3 16 -2 19 1 4 3 -2 6 -13 5 -11 0 -14 -3 -6 -6z"/>
<path d="M1570 1123 c0 -4 5 -15 10 -23 8 -13 10 -13 10 2 0 9 -4 20 -10 23
-5 3 -10 3 -10 -2z"/>
<path d="M886 1095 c4 -8 8 -15 10 -15 2 0 4 7 4 15 0 8 -4 15 -10 15 -5 0 -7
-7 -4 -15z"/>
<path d="M1445 1090 c-3 -5 -2 -10 4 -10 5 0 13 5 16 10 3 6 2 10 -4 10 -5 0
-13 -4 -16 -10z"/>
<path d="M1590 1073 c0 -4 5 -15 10 -23 8 -13 10 -13 10 2 0 9 -4 20 -10 23
-5 3 -10 3 -10 -2z"/>
<path d="M1410 1060 c0 -5 5 -10 10 -10 6 0 10 5 10 10 0 6 -4 10 -10 10 -5 0
-10 -4 -10 -10z"/>
<path d="M1570 1055 c0 -5 5 -17 10 -25 5 -8 10 -10 10 -5 0 6 -5 17 -10 25
-5 8 -10 11 -10 5z"/>
<path d="M1310 1025 c0 -8 4 -15 10 -15 5 0 7 7 4 15 -4 8 -8 15 -10 15 -2 0
-4 -7 -4 -15z"/>
<path d="M1437 1029 c7 -7 15 -10 18 -7 3 3 -2 9 -12 12 -14 6 -15 5 -6 -5z"/>
<path d="M847 995 c-19 -41 -21 -55 -7 -55 11 0 40 53 40 75 0 26 -16 17 -33
-20z"/>
<path d="M668 983 c7 -3 16 -2 19 1 4 3 -2 6 -13 5 -11 0 -14 -3 -6 -6z"/>
<path d="M1605 980 c3 -5 8 -10 11 -10 2 0 4 5 4 10 0 6 -5 10 -11 10 -5 0 -7
-4 -4 -10z"/>
<path d="M1311 914 c0 -11 3 -14 6 -6 3 7 2 16 -1 19 -3 4 -6 -2 -5 -13z"/>
<path d="M801 904 c0 -11 3 -14 6 -6 3 7 2 16 -1 19 -3 4 -6 -2 -5 -13z"/>
<path d="M961 824 c0 -11 3 -14 6 -6 3 7 2 16 -1 19 -3 4 -6 -2 -5 -13z"/>
<path d="M1455 830 c4 -6 11 -8 16 -5 14 9 11 15 -7 15 -8 0 -12 -5 -9 -10z"/>
<path d="M1543 825 c0 -8 4 -12 9 -9 5 3 6 10 3 15 -9 13 -12 11 -12 -6z"/>
<path d="M668 823 c6 -2 18 -2 25 0 6 3 1 5 -13 5 -14 0 -19 -2 -12 -5z"/>
<path d="M638 803 c7 -3 16 -2 19 1 4 3 -2 6 -13 5 -11 0 -14 -3 -6 -6z"/>
<path d="M982 770 c0 -19 2 -27 5 -17 2 9 2 25 0 35 -3 9 -5 1 -5 -18z"/>
<path d="M1073 745 c-3 -9 -3 -18 -1 -21 3 -3 8 4 11 16 6 23 -1 27 -10 5z"/>
<path d="M1331 734 c0 -11 3 -14 6 -6 3 7 2 16 -1 19 -3 4 -6 -2 -5 -13z"/>
<path d="M851 704 c0 -11 3 -14 6 -6 3 7 2 16 -1 19 -3 4 -6 -2 -5 -13z"/>
<path d="M1195 650 c-3 -5 -1 -10 4 -10 6 0 11 5 11 10 0 6 -2 10 -4 10 -3 0
-8 -4 -11 -10z"/>
<path d="M501 640 c0 -8 4 -22 9 -30 12 -18 12 -2 0 25 -6 13 -9 15 -9 5z"/>
<path d="M456 591 c-3 -5 5 -11 19 -13 28 -6 34 6 9 16 -20 8 -22 8 -28 -3z"/>
<path d="M400 569 c0 -5 5 -7 10 -4 6 3 10 8 10 11 0 2 -4 4 -10 4 -5 0 -10
-5 -10 -11z"/>
<path d="M525 560 c3 -5 8 -10 11 -10 2 0 4 5 4 10 0 6 -5 10 -11 10 -5 0 -7
-4 -4 -10z"/>
<path d="M410 540 c-11 -7 -7 -10 18 -10 17 0 32 -4 32 -10 0 -5 5 -10 10 -10
7 0 7 6 0 20 -12 22 -36 26 -60 10z"/>
<path d="M490 520 c0 -5 5 -10 10 -10 6 0 10 5 10 10 0 6 -4 10 -10 10 -5 0
-10 -4 -10 -10z"/>
<path d="M542 381 c-11 -7 -11 -9 0 -14 9 -3 15 1 15 9 0 8 -1 14 -1 14 -1 0
-7 -4 -14 -9z"/>
<path d="M1370 1496 c0 -2 7 -9 15 -16 13 -11 14 -10 9 4 -5 14 -24 23 -24 12z"/>
<path d="M1435 1440 c3 -5 8 -10 11 -10 2 0 4 5 4 10 0 6 -5 10 -11 10 -5 0
-7 -4 -4 -10z"/>
<path d="M411 1411 c-8 -5 -9 -11 -3 -15 5 -3 12 1 16 9 6 17 6 18 -13 6z"/>
<path d="M1623 1195 c-3 -9 -3 -18 -1 -21 3 -3 8 4 11 16 6 23 -1 27 -10 5z"/>
<path d="M1641 1164 c0 -11 3 -14 6 -6 3 7 2 16 -1 19 -3 4 -6 -2 -5 -13z"/>
<path d="M232 1060 c0 -14 2 -19 5 -12 2 6 2 18 0 25 -3 6 -5 1 -5 -13z"/>
<path d="M1702 870 c0 -19 2 -27 5 -17 2 9 2 25 0 35 -3 9 -5 1 -5 -18z"/>
<path d="M1670 820 c0 -5 5 -10 10 -10 6 0 10 5 10 10 0 6 -4 10 -10 10 -5 0
-10 -4 -10 -10z"/>
<path d="M1619 777 c-15 -12 -39 -30 -55 -39 -16 -10 -38 -23 -48 -30 -10 -7
-62 -41 -115 -75 -53 -35 -101 -67 -108 -73 -7 -6 -24 -15 -38 -22 -14 -6 -25
-15 -25 -20 0 -4 -4 -8 -10 -8 -11 0 -72 -38 -235 -146 -60 -39 -148 -95 -194
-123 -82 -50 -83 -51 -57 -61 43 -16 51 -13 134 42 43 29 111 73 151 98 40 25
148 95 241 155 92 61 216 139 274 175 78 48 107 72 112 90 3 14 8 33 11 43 6
23 -6 21 -38 -6z m-5 -44 c-57 -51 -157 -107 -122 -69 7 8 16 12 21 9 4 -2 7
1 7 7 0 6 8 14 18 17 9 4 30 17 45 30 33 27 61 32 31 6z m-144 -90 c0 -8 -65
-53 -76 -53 -3 0 -12 -7 -20 -15 -23 -22 -36 -18 -17 5 10 11 23 20 30 20 7 0
13 5 13 10 0 6 6 10 14 10 7 0 19 7 26 15 13 16 30 20 30 8z m-161 -107 c-23
-21 -85 -50 -67 -31 9 10 81 54 88 55 3 0 -7 -11 -21 -24z m-114 -78 c-27 -17
-53 -35 -56 -40 -4 -7 -9 -6 -13 0 -7 11 80 70 104 71 8 0 -7 -13 -35 -31z
m-96 -61 c-2 -1 -19 -13 -37 -25 -19 -13 -37 -20 -40 -17 -4 4 -2 9 3 11 6 2
24 12 40 23 17 10 32 17 34 15 2 -2 2 -5 0 -7z m-95 -55 c-5 -4 -39 -28 -75
-53 -83 -59 -159 -103 -159 -92 0 5 15 16 33 25 17 9 70 43 117 76 47 32 87
57 90 55 2 -2 0 -7 -6 -11z"/>
<path d="M1650 686 c0 -2 8 -10 18 -17 15 -13 16 -12 3 4 -13 16 -21 21 -21
13z"/>
<path d="M1485 569 c-82 -55 -211 -139 -285 -185 -74 -47 -169 -108 -210 -135
-41 -27 -95 -60 -120 -73 -25 -14 -40 -26 -35 -26 90 -10 83 -12 250 93 88 55
174 111 191 124 17 13 36 23 42 23 6 0 12 3 14 8 2 4 21 19 43 33 230 149 230
149 247 195 8 24 15 44 14 44 0 -1 -68 -46 -151 -101z m95 24 c-1 -9 -91 -66
-96 -60 -5 4 77 67 88 67 4 0 8 -3 8 -7z m-117 -78 c-3 -9 -8 -14 -10 -11 -3
3 -15 -4 -26 -15 -12 -10 -43 -30 -71 -44 -27 -14 -46 -25 -40 -25 5 0 -14
-13 -41 -29 -28 -16 -57 -36 -64 -45 -7 -9 -22 -16 -31 -16 -10 0 -20 -3 -22
-8 -5 -11 -191 -133 -202 -131 -5 0 -13 -6 -18 -15 -5 -9 -16 -16 -25 -16 -21
0 17 34 58 52 16 7 29 16 29 19 0 4 11 10 25 13 14 4 25 11 25 16 0 6 6 10 14
10 8 0 16 3 18 8 2 4 30 25 63 46 33 22 85 57 117 78 31 21 61 38 67 38 6 0
11 4 11 9 0 5 8 11 18 15 18 6 54 27 62 37 5 5 42 28 47 29 1 0 0 -7 -4 -15z"/>
<path d="M1626 573 c-6 -14 -5 -15 5 -6 7 7 10 15 7 18 -3 3 -9 -2 -12 -12z"/>
<path d="M301 534 c0 -11 3 -14 6 -6 3 7 2 16 -1 19 -3 4 -6 -2 -5 -13z"/>
<path d="M1596 535 c-11 -8 -15 -15 -9 -15 6 0 16 7 23 15 16 19 11 19 -14 0z"/>
<path d="M1561 515 c-2 -15 -442 -310 -513 -343 -77 -35 -31 -38 116 -6 35 7
148 66 196 102 77 57 216 222 206 245 -2 7 -5 8 -5 2z m-98 -117 c-18 -18 -52
-40 -75 -50 -40 -18 -26 -19 17 -3 14 6 10 -1 -12 -23 -18 -18 -42 -32 -53
-32 -13 0 -18 -4 -15 -11 4 -6 -2 -13 -14 -16 -12 -3 -21 -10 -21 -15 0 -6 -9
-8 -21 -5 -12 3 -18 3 -15 0 9 -10 -48 -41 -88 -49 -20 -3 -39 -10 -42 -15 -3
-5 -13 -9 -22 -9 -16 0 11 19 93 66 16 9 36 23 43 31 12 12 16 12 23 1 7 -10
9 -9 9 4 0 20 35 42 52 32 6 -4 8 -3 5 3 -8 13 5 24 91 79 82 52 85 52 45 12z"/>
<path d="M1340 320 c0 -5 5 -10 11 -10 5 0 7 5 4 10 -3 6 -8 10 -11 10 -2 0
-4 -4 -4 -10z"/>
<path d="M326 497 c3 -10 9 -15 12 -12 3 3 0 11 -7 18 -10 9 -11 8 -5 -6z"/>
<path d="M330 460 c8 -5 20 -10 25 -10 6 0 3 5 -5 10 -8 5 -19 10 -25 10 -5 0
-3 -5 5 -10z"/>
<path d="M1566 413 c-6 -14 -5 -15 5 -6 7 7 10 15 7 18 -3 3 -9 -2 -12 -12z"/>
<path d="M1505 369 c-4 -6 -5 -12 -2 -15 2 -3 7 2 10 11 7 17 1 20 -8 4z"/>
<path d="M1490 326 c0 -2 7 -7 16 -10 8 -3 12 -2 9 4 -6 10 -25 14 -25 6z"/>
<path d="M1436 294 c-9 -8 -16 -20 -16 -26 0 -6 1 -9 3 -7 1 2 11 14 21 27 22
25 16 30 -8 6z"/>
<path d="M1450 265 c-7 -9 -8 -15 -2 -15 5 0 12 7 16 15 3 8 4 15 2 15 -2 0
-9 -7 -16 -15z"/>
<path d="M550 241 c0 -6 4 -13 10 -16 6 -3 7 1 4 9 -7 18 -14 21 -14 7z"/>
<path d="M1345 220 c3 -5 8 -10 11 -10 2 0 4 5 4 10 0 6 -5 10 -11 10 -5 0 -7
-4 -4 -10z"/>
<path d="M1320 206 c0 -2 7 -7 16 -10 8 -3 12 -2 9 4 -6 10 -25 14 -25 6z"/>
<path d="M622 186 c7 -8 17 -12 22 -9 4 3 2 9 -5 14 -22 13 -31 11 -17 -5z"/>
<path d="M1210 150 c-8 -5 -10 -10 -5 -10 6 0 17 5 25 10 8 5 11 10 5 10 -5 0
-17 -5 -25 -10z"/>
<path d="M748 143 c7 -3 16 -2 19 1 4 3 -2 6 -13 5 -11 0 -14 -3 -6 -6z"/>
</g>
</svg>
