<?xml version="1.0" standalone="no"?>
<!DOCTYPE svg PUBLIC "-//W3C//DTD SVG 20010904//EN"
 "http://www.w3.org/TR/2001/REC-SVG-20010904/DTD/svg10.dtd">
<svg version="1.0" xmlns="http://www.w3.org/2000/svg"
 width="300.000000pt" height="47.000000pt" viewBox="0 0 300.000000 47.000000"
 preserveAspectRatio="xMidYMid meet">
<metadata>
Created by potrace 1.10, written by Peter Selinger 2001-2011
</metadata>
<g transform="translate(0.000000,47.000000) scale(0.100000,-0.100000)"
fill="#000000" stroke="none">
<path d="M1295 313 c-56 -6 -75 -27 -75 -80 0 -46 25 -83 57 -83 14 0 12 5
-10 25 -21 20 -27 35 -27 66 0 33 4 41 26 49 14 6 29 10 33 10 4 0 6 -39 3
-87 -3 -65 -8 -91 -20 -100 -13 -11 1 -13 79 -13 l95 0 11 30 c13 35 8 38 -16
8 -13 -15 -29 -21 -62 -22 -42 -1 -44 0 -47 29 -2 21 5 38 23 58 29 31 55 35
55 10 0 -12 3 -14 10 -7 16 16 0 44 -25 44 -13 0 -30 -7 -39 -15 -22 -23 -26
-19 -26 25 0 40 0 40 38 40 28 0 45 -7 62 -25 13 -14 27 -25 32 -25 10 0 -19
60 -30 60 -4 0 -29 2 -57 4 -27 2 -68 1 -90 -1z m32 -115 c-3 -8 -6 -5 -6 6
-1 11 2 17 5 13 3 -3 4 -12 1 -19z"/>
<path d="M2311 311 c-8 -5 -11 -16 -6 -30 8 -25 18 -27 35 -5 11 12 11 18 -1
29 -9 9 -19 11 -28 6z"/>
<path d="M200 298 c-17 -9 -26 -23 -28 -45 -4 -43 24 -70 85 -78 66 -10 93
-28 93 -65 0 -24 -6 -33 -27 -41 -34 -13 -90 -4 -132 22 -28 17 -32 25 -29 49
3 21 0 30 -9 30 -15 0 -17 -38 -3 -75 17 -45 118 -70 183 -46 48 18 56 108 13
137 -12 7 -44 18 -72 23 -72 14 -84 21 -84 46 0 44 81 49 130 9 17 -15 34 -24
37 -21 10 11 -27 57 -45 57 -9 0 -33 3 -52 5 -20 3 -46 0 -60 -7z"/>
<path d="M1014 295 c-4 -8 -3 -23 0 -32 6 -15 8 -15 23 -1 16 17 12 48 -7 48
-6 0 -13 -7 -16 -15z"/>
<path d="M1673 279 c-7 -15 -18 -30 -25 -33 -10 -5 -10 -7 0 -12 7 -3 12 -26
12 -60 0 -45 3 -54 18 -54 19 0 42 18 42 33 0 5 -6 4 -14 -2 -12 -10 -15 -4
-18 34 -2 31 1 45 9 45 7 0 13 5 13 10 0 6 -4 10 -9 10 -5 0 -11 12 -13 28
l-4 27 -11 -26z"/>
<path d="M2653 253 c-27 -10 -14 -53 22 -74 19 -12 32 -25 29 -30 -9 -15 -42
-10 -53 8 -14 25 -25 9 -11 -16 18 -35 90 -20 90 18 0 22 -30 51 -53 51 -9 0
-17 7 -17 15 0 17 35 20 46 4 4 -8 9 -7 15 2 5 8 9 17 9 20 0 7 -60 9 -77 2z"/>
<path d="M555 240 c-4 -6 -1 -17 5 -25 12 -14 5 -55 -10 -55 -4 0 -15 18 -24
40 -9 22 -22 40 -30 40 -19 0 -29 -17 -16 -25 11 -7 -5 -45 -18 -45 -5 0 -16
16 -25 35 -18 38 -41 44 -73 20 -18 -14 -18 -14 9 -15 24 0 31 -7 50 -50 12
-27 24 -50 27 -50 3 0 12 15 21 32 21 44 35 45 49 4 6 -20 15 -36 19 -36 12 0
64 117 57 129 -9 14 -33 14 -41 1z"/>
<path d="M664 238 c-37 -17 -56 -83 -35 -117 8 -13 13 -13 38 -1 15 8 31 16
36 18 4 2 7 -3 7 -12 0 -17 17 -21 38 -7 11 7 11 9 -2 14 -12 5 -16 20 -16 60
0 48 -2 53 -22 54 -13 1 -33 -3 -44 -9z m36 -42 c0 -36 -26 -58 -42 -34 -12
20 -10 35 8 52 24 25 34 19 34 -18z"/>
<path d="M836 232 c-14 -14 -18 -15 -25 -3 -5 8 -16 11 -30 6 -23 -7 -29 -25
-7 -25 10 0 12 -12 8 -50 -5 -51 5 -63 27 -36 6 7 9 20 5 29 -8 21 13 57 33
57 13 0 15 -8 10 -50 -3 -27 -2 -50 2 -50 16 0 31 27 25 44 -3 9 -1 23 5 30 9
11 9 19 -1 35 -18 29 -33 32 -52 13z"/>
<path d="M917 239 c-21 -12 -22 -29 -2 -29 11 0 15 -12 15 -50 0 -50 4 -55 34
-44 20 8 21 24 2 24 -11 0 -13 11 -10 44 5 49 -10 71 -39 55z"/>
<path d="M1498 236 c-21 -16 -23 -26 -5 -26 8 0 11 -15 9 -50 -3 -30 0 -50 6
-50 15 0 27 22 24 42 -4 24 16 58 34 58 13 0 15 -9 12 -45 -3 -49 9 -62 39
-40 17 14 17 14 0 15 -14 0 -18 7 -16 38 3 58 0 72 -15 72 -7 0 -19 -7 -26
-15 -7 -8 -16 -15 -21 -15 -5 0 -9 7 -9 15 0 18 -9 19 -32 1z"/>
<path d="M1766 231 c-20 -22 -28 -56 -20 -88 5 -19 13 -23 43 -23 35 0 61 14
61 32 0 5 -9 4 -21 -2 -11 -7 -27 -9 -35 -6 -10 4 -5 14 23 39 25 23 34 39 30
50 -9 23 -60 22 -81 -2z m35 -40 c-12 -22 -31 -28 -31 -10 0 23 22 51 32 41 7
-7 6 -17 -1 -31z"/>
<path d="M1880 235 c-9 -10 -9 -15 -1 -15 7 0 11 -20 11 -50 0 -38 4 -50 15
-50 10 0 15 10 15 33 0 22 8 41 22 53 21 19 21 19 16 -3 -7 -27 0 -29 18 -5
30 39 5 71 -30 37 -8 -8 -17 -15 -20 -15 -3 0 -6 7 -6 15 0 8 -6 15 -14 15 -7
0 -19 -7 -26 -15z"/>
<path d="M2021 237 c-6 -8 -8 -17 -4 -21 11 -11 3 -169 -9 -184 -17 -20 0 -27
20 -9 14 13 21 14 30 5 19 -19 27 0 9 20 -10 10 -17 31 -17 45 0 22 5 27 23
27 44 0 72 52 56 100 -8 22 -17 30 -34 30 -13 0 -26 -6 -29 -12 -5 -10 -7 -10
-12 0 -7 16 -19 15 -33 -1z m79 -51 c0 -37 -15 -55 -32 -38 -24 24 -12 72 18
72 9 0 14 -12 14 -34z"/>
<path d="M2160 239 c-11 -8 -12 -12 -2 -16 7 -3 12 -24 12 -55 0 -58 21 -63
31 -7 3 19 9 40 13 47 12 20 28 14 21 -8 -3 -11 -2 -20 3 -20 9 0 32 43 32 60
0 16 -32 11 -52 -7 -17 -15 -18 -15 -18 0 0 19 -18 22 -40 6z"/>
<path d="M2302 241 c-11 -6 -10 -10 3 -15 14 -5 16 -14 11 -50 -8 -48 1 -61
34 -51 23 7 27 25 6 25 -9 0 -13 14 -12 47 1 49 -13 63 -42 44z"/>
<path d="M2386 234 c-9 -23 10 -51 44 -62 16 -6 30 -16 30 -21 0 -18 -48 -12
-59 6 -12 23 -25 11 -16 -16 5 -16 15 -21 39 -21 63 0 75 54 19 80 -18 8 -33
21 -33 28 0 14 26 16 35 2 9 -15 22 -12 29 5 4 12 -4 15 -38 15 -31 0 -46 -5
-50 -16z"/>
<path d="M2521 236 c-7 -8 -14 -30 -18 -48 -9 -60 41 -88 88 -48 l24 19 -37
-6 c-21 -3 -38 -3 -38 1 0 4 16 20 35 37 19 17 35 37 35 45 0 19 -74 19 -89 0z
m49 -12 c0 -13 -21 -44 -30 -44 -11 0 -14 33 -3 43 8 8 33 9 33 1z"/>
<path d="M995 230 c-3 -5 1 -10 9 -10 11 0 16 -14 18 -52 3 -53 12 -65 38 -47
11 8 12 12 3 16 -8 3 -13 24 -13 54 0 45 -2 49 -24 49 -14 0 -28 -4 -31 -10z"/>
<path d="M91 144 c0 -11 3 -14 6 -6 3 7 2 16 -1 19 -3 4 -6 -2 -5 -13z"/>
<path d="M2256 127 c3 -10 9 -15 12 -12 3 3 0 11 -7 18 -10 9 -11 8 -5 -6z"/>
</g>
</svg>
